<svg width="133" height="133" viewBox="0 0 133 133" fill="none" xmlns="http://www.w3.org/2000/svg">
<circle cx="66.5" cy="66.5" r="66.5" fill="#E1E3E8"/>
<path d="M71.2501 55.4072L73.6564 41.0496C73.8543 39.8695 74.8856 39 76.0939 39C76.8751 39 77.6043 39.3623 78.0731 39.9834L79.8335 42.3125H85.2606C86.5835 42.3125 87.8543 42.8404 88.7918 43.7721L90.6668 45.625H96.5001C97.8856 45.625 99.0001 46.7326 99.0001 48.1094V50.5938C99.0001 55.1691 95.271 58.875 90.6668 58.875H87.3335H85.6668H83.4481L82.9168 62.0322L71.2501 55.4072ZM82.3335 65.5104V88.6875C82.3335 90.5197 80.8439 92 79.0001 92H75.6668C73.8231 92 72.3335 90.5197 72.3335 88.6875V76.7625C69.8335 78.0357 67.0001 78.75 64.0001 78.75C61.0001 78.75 58.1668 78.0357 55.6668 76.7625V88.6875C55.6668 90.5197 54.1772 92 52.3335 92H49.0001C47.1564 92 45.6668 90.5197 45.6668 88.6875V64.8582C42.6668 63.7299 40.3126 61.2041 39.5001 57.9744L39.1043 56.3699C38.6564 54.5998 39.7397 52.7986 41.5314 52.3535C43.3231 51.9084 45.1251 52.985 45.5731 54.7654L45.9793 56.3699C46.3439 57.8398 47.6772 58.875 49.2085 58.875H52.3335H54.0001H70.646L82.3335 65.5104ZM87.3335 47.2812C87.3335 46.3703 86.5835 45.625 85.6668 45.625C84.7501 45.625 84.0001 46.3703 84.0001 47.2812C84.0001 48.1922 84.7501 48.9375 85.6668 48.9375C86.5835 48.9375 87.3335 48.1922 87.3335 47.2812Z" fill="#959CA6"/>
</svg>
