<svg width="243" height="32" viewBox="0 0 243 32" fill="none" xmlns="http://www.w3.org/2000/svg">
<path fill-rule="evenodd" clip-rule="evenodd" d="M225.232 30.8499C224.256 29.8736 224.256 28.2907 225.232 27.3143L236.609 15.9373L225.232 4.56031C224.256 3.584 224.256 2.00109 225.232 1.02478C226.209 0.0484653 227.791 0.0484651 228.768 1.02478L241.913 14.1696C242.889 15.1459 242.889 16.7288 241.913 17.7051L228.768 30.8499C227.791 31.8262 226.209 31.8262 225.232 30.8499Z" fill="#CBD0D6"/>
<path fill-rule="evenodd" clip-rule="evenodd" d="M17.9126 1.02477C18.8889 2.00108 18.8889 3.58399 17.9126 4.56031L6.53554 15.9373L17.9126 27.3143C18.8889 28.2906 18.8889 29.8736 17.9126 30.8499C16.9362 31.8262 15.3533 31.8262 14.377 30.8499L1.23224 17.7051C0.255925 16.7288 0.255925 15.1459 1.23224 14.1696L14.377 1.02477C15.3533 0.0484612 16.9362 0.0484609 17.9126 1.02477Z" fill="#CBD0D6"/>
</svg>
