<svg width="47" height="45" viewBox="0 0 47 45" fill="none" xmlns="http://www.w3.org/2000/svg">
<ellipse cx="23.3318" cy="22.5" rx="23.1136" ry="22.5" fill="#E6E9EE"/>
<g clip-path="url(#clip0_9_983)">
<path d="M27.64 19.6406C31.2283 20.7826 33.24 24.4978 34.0156 28.2749C34.2541 29.4361 34.3756 31.037 34.0801 32.1967C32.5079 38.3523 27.898 32.5493 23.8701 32.5493C19.8422 32.5493 15.1798 38.3538 13.6106 32.1967C13.3691 31.2554 13.5326 29.9112 13.6586 28.9596C13.8281 27.6626 14.1972 26.3967 14.6757 25.1971C15.6163 22.8453 17.2695 20.8327 19.5272 20.0183C21.9364 19.1478 25.0207 18.8069 27.64 19.6406Z" fill="#3182F7"/>
<path d="M16.2014 35.5814C15.8008 35.5814 15.4153 35.5076 15.0463 35.3379C14.1207 34.9101 13.4726 33.9259 13.0661 32.331C12.811 31.3365 12.9506 30.0322 13.1021 28.8887C13.2641 27.6449 13.6181 26.3347 14.1537 24.9965C15.2458 22.2639 17.0849 20.3119 19.3337 19.5019C22.1734 18.475 25.3432 18.3304 27.8125 19.1168C31.1398 20.1747 33.6015 23.4738 34.5661 28.1672C34.8076 29.3432 34.9502 31.0562 34.6246 32.3324C34.2166 33.9318 33.5685 34.916 32.6444 35.3424C31.2388 35.9901 29.5916 35.2125 27.8485 34.3877C26.5118 33.7563 25.1302 33.1026 23.8701 33.1026C22.61 33.1026 21.2253 33.7548 19.8827 34.3848C18.5821 34.9956 17.334 35.5829 16.2014 35.5829V35.5814ZM24.3426 19.7143C22.8275 19.7143 21.2268 19.9917 19.7207 20.5362C17.7765 21.237 16.1714 22.9633 15.1978 25.3993C14.6967 26.6534 14.3652 27.8751 14.2152 29.0289C14.1162 29.7829 13.9301 31.186 14.1552 32.061C14.4702 33.2974 14.9307 34.0631 15.5248 34.3376C16.4579 34.7699 17.8875 34.0971 19.3997 33.3859C20.8548 32.7028 22.358 31.996 23.8701 31.996C25.3822 31.996 26.8854 32.7043 28.3345 33.3903C29.8317 34.0971 31.2448 34.7655 32.1674 34.3405C32.7584 34.0676 33.219 33.3018 33.5355 32.061C33.8145 30.9617 33.672 29.3919 33.465 28.3826C33.048 26.3524 31.6288 21.4893 27.4659 20.1644C26.5193 19.8634 25.4542 19.7143 24.3426 19.7143Z" fill="black"/>
<path d="M10.0088 20.1201C9.50772 19.7424 9.06218 19.2997 8.74865 18.7878C8.10209 17.7328 8.06158 16.1939 9.2977 15.5403C11.8119 14.2153 14.6967 16.4846 15.3838 18.8689C15.5458 19.4325 15.6898 20.5244 15.3718 21.0673C14.6757 22.2625 12.631 21.5351 11.7144 21.1145C11.1399 20.8519 10.5413 20.5229 10.0073 20.1201H10.0088Z" fill="#3182F7"/>
<path d="M14.0127 22.2772C13.3031 22.2772 12.445 22.0574 11.4789 21.6147C10.7859 21.2975 10.1768 20.9419 9.66674 20.5583C9.06219 20.1024 8.59114 19.6022 8.26711 19.071C7.77806 18.2728 7.61905 17.3182 7.84257 16.52C8.02259 15.8767 8.43363 15.3706 9.03368 15.0534C10.1258 14.4779 11.3439 14.4411 12.559 14.9486C14.1087 15.5949 15.4618 17.1102 15.9253 18.7184C15.9448 18.7878 16.4039 20.4137 15.8608 21.3432C15.4978 21.9659 14.8602 22.2787 14.0127 22.2787V22.2772ZM10.3508 19.6819C10.7949 20.0168 11.3349 20.3311 11.953 20.6144C13.0586 21.1204 14.4912 21.4716 14.8857 20.7929C15.0703 20.4757 15.0118 19.6037 14.8437 19.0194C14.4672 17.7166 13.3721 16.489 12.118 15.9652C11.4969 15.707 10.5488 15.5063 9.56173 16.0272C9.2347 16.1998 9.02018 16.4639 8.92267 16.8136C8.78166 17.3182 8.89867 17.9659 9.2272 18.503C9.47773 18.9146 9.85576 19.3115 10.3478 19.6819H10.3508Z" fill="black"/>
<path d="M37.7299 20.1201C38.231 19.7424 38.6765 19.2997 38.99 18.7878C39.6366 17.7328 39.6771 16.1924 38.441 15.5403C35.9267 14.2153 33.042 16.4846 32.3564 18.8689C32.1929 19.4325 32.0489 20.5244 32.3669 21.0673C33.063 22.2625 35.1077 21.5351 36.0243 21.1145C36.5988 20.8519 37.1974 20.5229 37.7314 20.1201H37.7299Z" fill="#3182F7"/>
<path d="M33.726 22.2772C32.8785 22.2772 32.2409 21.9644 31.8779 21.3418C31.3333 20.4093 31.7954 18.7863 31.8149 18.7169C32.2784 17.1102 33.63 15.5949 35.1797 14.9486C36.3948 14.4411 37.6144 14.4779 38.705 15.0534C39.3051 15.3706 39.7161 15.8767 39.8961 16.52C40.1197 17.3182 39.9606 18.2728 39.4701 19.0725C39.1461 19.6022 38.675 20.1024 38.0705 20.5583C37.5604 20.9419 36.9513 21.2975 36.2583 21.6147C35.2922 22.0574 34.4356 22.2772 33.7245 22.2772H33.726ZM36.8718 15.7011C36.3873 15.7011 35.9538 15.8236 35.6177 15.9652C34.3651 16.4875 33.27 17.7151 32.895 19.0194C32.7254 19.6037 32.6669 20.4742 32.8515 20.7914C33.2475 21.4701 34.6786 21.1205 35.7857 20.6129C36.4038 20.3296 36.9438 20.0153 37.3879 19.6804C37.8799 19.3086 38.258 18.9117 38.5085 18.5015C38.8385 17.963 38.9555 17.3152 38.813 16.8106C38.7155 16.4624 38.501 16.1969 38.174 16.0257C37.7224 15.7882 37.2799 15.6996 36.8718 15.6996V15.7011Z" fill="black"/>
<path d="M16.7279 14.4381C16.4294 13.8892 16.2104 13.3064 16.1399 12.7118C15.9958 11.4887 16.6034 10.0693 18.0045 9.97781C20.8503 9.7919 22.523 13.0305 22.1479 15.4813C22.0594 16.0626 21.7294 17.1131 21.2148 17.479C20.0792 18.2846 18.5206 16.7915 17.8635 16.0375C17.451 15.5639 17.0429 15.0209 16.7264 14.4381H16.7279Z" fill="#3182F7"/>
<path d="M20.4858 18.2669C19.5722 18.2669 18.5116 17.6266 17.439 16.3975C16.9394 15.8236 16.5344 15.2526 16.2329 14.6993C15.8743 14.0398 15.6553 13.392 15.5833 12.7768C15.4738 11.8487 15.7303 10.9147 16.2689 10.2788C16.7009 9.76536 17.289 9.47175 17.9685 9.42748C19.2031 9.34633 20.3283 9.80815 21.2223 10.7628C22.3625 11.98 22.958 13.9099 22.706 15.5639C22.6955 15.6347 22.43 17.3005 21.5464 17.9276C21.2253 18.1548 20.8683 18.2669 20.4873 18.2669H20.4858ZM17.223 14.1785C17.487 14.6624 17.8455 15.167 18.2926 15.679C19.0861 16.5893 20.2442 17.4909 20.8893 17.032C21.1908 16.818 21.5029 16.0006 21.5944 15.4001C21.7984 14.0589 21.3169 12.4964 20.3958 11.5123C19.9397 11.0239 19.1596 10.4574 18.042 10.5311C17.6715 10.5547 17.3655 10.7082 17.13 10.9856C16.7894 11.3884 16.6229 12.0258 16.6979 12.6499C16.7549 13.1279 16.9304 13.6414 17.223 14.1785Z" fill="black"/>
<path d="M31.0123 14.4381C31.3108 13.8892 31.5298 13.3064 31.6003 12.7118C31.7459 11.4887 31.1368 10.0693 29.7372 9.97781C26.8914 9.7919 25.2172 13.0305 25.5923 15.4813C25.6808 16.0626 26.0108 17.1131 26.5269 17.479C27.6625 18.2846 29.2196 16.7915 29.8767 16.0375C30.2892 15.5639 30.6973 15.0209 31.0138 14.4381H31.0123Z" fill="#3182F7"/>
<path d="M27.2544 18.2669C26.8734 18.2669 26.5164 18.1548 26.1968 17.9276C25.3117 17.3005 25.0462 15.6347 25.0357 15.5639C24.7837 13.9099 25.3792 11.9815 26.5194 10.7642C27.4119 9.8096 28.5355 9.34631 29.7732 9.42746C30.4527 9.47172 31.0408 9.76534 31.4743 10.2788C32.0129 10.9162 32.2679 11.8502 32.1584 12.7767C32.0864 13.392 31.8674 14.0383 31.5088 14.6993C31.2073 15.254 30.8008 15.825 30.3027 16.3975C29.2301 17.628 28.1695 18.2669 27.2559 18.2669H27.2544ZM29.5046 10.5237C28.4905 10.5237 27.775 11.0534 27.3444 11.5123C26.4218 12.4979 25.9403 14.0604 26.1458 15.4001C26.2373 16.0006 26.5509 16.818 26.8524 17.032C27.4974 17.4908 28.6541 16.5893 29.4491 15.679C29.8947 15.167 30.2532 14.6624 30.5172 14.1784C30.8098 13.6414 30.9853 13.1264 31.0423 12.6499C31.1173 12.0257 30.9523 11.3883 30.6102 10.9855C30.3747 10.7067 30.0687 10.5547 29.6982 10.5296C29.6322 10.5252 29.5676 10.5237 29.5046 10.5237Z" fill="black"/>
</g>
<defs>
<clipPath id="clip0_9_983">
<rect width="32.2516" height="26.1628" fill="white" transform="translate(7.74355 9.41861)"/>
</clipPath>
</defs>
</svg>
