<svg width="45" height="45" viewBox="0 0 45 45" fill="none" xmlns="http://www.w3.org/2000/svg">
<rect width="45" height="45" rx="22.5" fill="white"/>
<circle cx="16.9929" cy="19.5098" r="1.44893" transform="rotate(-13.998 16.9929 19.5098)" fill="#272727"/>
<circle cx="28.0976" cy="19.7281" r="1.44893" transform="rotate(-13.998 28.0976 19.7281)" fill="#272727"/>
<path fill-rule="evenodd" clip-rule="evenodd" d="M22.9668 23.9955C19.209 23.6849 16.5109 25.9045 15.6653 27.0074C15.4218 27.3249 14.9671 27.3849 14.6495 27.1415C14.332 26.898 14.272 26.4433 14.5155 26.1257C15.5682 24.7528 18.7023 22.1891 23.0862 22.5515C27.451 22.9124 29.6337 25.595 30.1963 27.0379C30.3416 27.4107 30.1572 27.8307 29.7844 27.976C29.4117 28.1214 28.9916 27.937 28.8463 27.5642C28.4714 26.6026 26.7437 24.3078 22.9668 23.9955Z" fill="#D2D8E6" fill-opacity="0.7"/>
<path d="M20.7422 24.8308L21.4603 25.5812C21.9164 26.0578 22.6778 26.0582 23.1344 25.582L23.897 24.7866C24.6153 24.0374 24.0625 22.7943 23.0251 22.8258L21.5444 22.8708C20.5412 22.9013 20.0482 24.1057 20.7422 24.8308Z" fill="black"/>
<path fill-rule="evenodd" clip-rule="evenodd" d="M22.3172 24.2136C22.7172 24.2254 23.0318 24.5592 23.0201 24.9591L22.9152 28.5205C22.9022 28.9626 22.7338 29.4298 22.3624 29.772C21.7908 30.2986 20.997 30.8259 19.9899 31.0679C18.9716 31.3126 17.7826 31.2536 16.4573 30.6758C16.0906 30.5159 15.9229 30.0889 16.0828 29.7221C16.2427 29.3554 16.6697 29.1877 17.0364 29.3476C18.0869 29.8057 18.9543 29.8266 19.6514 29.6591C20.3597 29.4889 20.9404 29.112 21.3807 28.7064C21.4207 28.6695 21.4634 28.595 21.4669 28.4779L21.5718 24.9164C21.5835 24.5165 21.9173 24.2018 22.3172 24.2136Z" fill="black"/>
<path fill-rule="evenodd" clip-rule="evenodd" d="M22.2825 24.7808C21.9024 24.7656 21.5965 25.0434 21.5991 25.4014L21.5222 28.5645C21.5251 28.9603 21.675 29.3884 22.0204 29.718C22.5521 30.2252 23.2946 30.7474 24.2459 31.0284C25.2078 31.3126 26.5023 31.1738 27.7732 30.7431C28.1249 30.6238 28.2932 30.2533 28.1492 29.9154C28.0051 29.5775 27.6032 29.4002 27.2515 29.5194C26.2441 29.8608 25.2559 29.9864 24.5974 29.7918C23.9284 29.5942 23.3849 29.2201 22.9755 28.8294C22.9382 28.7939 22.8993 28.7246 22.8985 28.6197L22.9755 25.4566C22.9728 25.0986 22.6625 24.7961 22.2825 24.7808Z" fill="black"/>
</svg>
