<svg width="15" height="17" viewBox="0 0 15 17" fill="none" xmlns="http://www.w3.org/2000/svg">
<path d="M4.07674 0.457764C4.6315 0.457764 5.07969 0.912199 5.07969 1.47468V2.4916H9.09149V1.47468C9.09149 0.912199 9.53968 0.457764 10.0944 0.457764C10.6492 0.457764 11.0974 0.912199 11.0974 1.47468V2.4916H12.6018C13.4324 2.4916 14.1062 3.17484 14.1062 4.01698V5.54236H0.0649414V4.01698C0.0649414 3.17484 0.738798 2.4916 1.56937 2.4916H3.07379V1.47468C3.07379 0.912199 3.52198 0.457764 4.07674 0.457764ZM0.0649414 6.55928H14.1062V15.2031C14.1062 16.0452 13.4324 16.7285 12.6018 16.7285H1.56937C0.738798 16.7285 0.0649414 16.0452 0.0649414 15.2031V6.55928ZM2.07084 9.10158V10.1185C2.07084 10.3981 2.2965 10.627 2.57232 10.627H3.57527C3.85108 10.627 4.07674 10.3981 4.07674 10.1185V9.10158C4.07674 8.82192 3.85108 8.59312 3.57527 8.59312H2.57232C2.2965 8.59312 2.07084 8.82192 2.07084 9.10158ZM6.08264 9.10158V10.1185C6.08264 10.3981 6.3083 10.627 6.58412 10.627H7.58707C7.86288 10.627 8.08854 10.3981 8.08854 10.1185V9.10158C8.08854 8.82192 7.86288 8.59312 7.58707 8.59312H6.58412C6.3083 8.59312 6.08264 8.82192 6.08264 9.10158ZM10.5959 8.59312C10.3201 8.59312 10.0944 8.82192 10.0944 9.10158V10.1185C10.0944 10.3981 10.3201 10.627 10.5959 10.627H11.5989C11.8747 10.627 12.1003 10.3981 12.1003 10.1185V9.10158C12.1003 8.82192 11.8747 8.59312 11.5989 8.59312H10.5959ZM2.07084 13.1693V14.1862C2.07084 14.4658 2.2965 14.6946 2.57232 14.6946H3.57527C3.85108 14.6946 4.07674 14.4658 4.07674 14.1862V13.1693C4.07674 12.8896 3.85108 12.6608 3.57527 12.6608H2.57232C2.2965 12.6608 2.07084 12.8896 2.07084 13.1693ZM6.58412 12.6608C6.3083 12.6608 6.08264 12.8896 6.08264 13.1693V14.1862C6.08264 14.4658 6.3083 14.6946 6.58412 14.6946H7.58707C7.86288 14.6946 8.08854 14.4658 8.08854 14.1862V13.1693C8.08854 12.8896 7.86288 12.6608 7.58707 12.6608H6.58412ZM10.0944 13.1693V14.1862C10.0944 14.4658 10.3201 14.6946 10.5959 14.6946H11.5989C11.8747 14.6946 12.1003 14.4658 12.1003 14.1862V13.1693C12.1003 12.8896 11.8747 12.6608 11.5989 12.6608H10.5959C10.3201 12.6608 10.0944 12.8896 10.0944 13.1693Z" fill="#959CA6"/>
</svg>
