<svg width="20" height="17" viewBox="0 0 20 17" fill="none" xmlns="http://www.w3.org/2000/svg">
<path d="M10.7495 5.2627L11.5516 0.657422C11.6176 0.278906 11.9614 0 12.3642 0C12.6246 0 12.8677 0.116211 13.0239 0.31543L13.6108 1.0625H15.4199C15.8609 1.0625 16.2845 1.23184 16.597 1.53066L17.2221 2.125H19.1666C19.6285 2.125 20 2.48027 20 2.92188V3.71875C20 5.18633 18.7569 6.375 17.2221 6.375H16.1109H15.5553H14.8157L14.6386 7.3877L10.7495 5.2627ZM14.4442 8.50332V15.9375C14.4442 16.5252 13.9476 17 13.333 17H12.2218C11.6072 17 11.1106 16.5252 11.1106 15.9375V12.1125C10.2773 12.5209 9.33277 12.75 8.33272 12.75C7.33267 12.75 6.38817 12.5209 5.55479 12.1125V15.9375C5.55479 16.5252 5.05824 17 4.44362 17H3.33246C2.71784 17 2.22129 16.5252 2.22129 15.9375V8.29414C1.22123 7.93223 0.43647 7.12207 0.165622 6.08613L0.0336708 5.57148C-0.115643 5.00371 0.245487 4.42598 0.842741 4.2832C1.43999 4.14043 2.04072 4.48574 2.19003 5.05684L2.32546 5.57148C2.44699 6.04297 2.89146 6.375 3.4019 6.375H4.44362H4.99921H10.5481L14.4442 8.50332ZM16.1109 2.65625C16.1109 2.36406 15.8609 2.125 15.5553 2.125C15.2497 2.125 14.9997 2.36406 14.9997 2.65625C14.9997 2.94844 15.2497 3.1875 15.5553 3.1875C15.8609 3.1875 16.1109 2.94844 16.1109 2.65625Z" fill="#CBD0D6"/>
</svg>
