<svg width="17" height="17" viewBox="0 0 17 17" fill="none" xmlns="http://www.w3.org/2000/svg">
<path d="M8.92832 0.00440336C8.7457 -0.0188692 8.56309 0.0509484 8.44687 0.193908C8.33066 0.336868 8.29414 0.529698 8.35391 0.705904C8.44688 0.978525 8.49668 1.26777 8.49668 1.57364C8.49668 3.03981 7.31133 4.23003 5.84707 4.23336H5.3125C4.14043 4.23336 3.1875 5.18753 3.1875 6.36113C3.1875 6.99614 3.46641 7.56798 3.90801 7.95696H3.45312C2.13164 7.95696 1.0625 9.0275 1.0625 10.3507C1.0625 11.122 1.42773 11.8069 1.99219 12.2458C0.859961 12.4353 0 13.4194 0 14.6063C0 15.9295 1.06914 17 2.39062 17H14.6094C15.9309 17 17 15.9295 17 14.6063C17 13.4194 16.14 12.4353 15.0078 12.2458C15.5723 11.8069 15.9375 11.122 15.9375 10.3507C15.9375 9.0275 14.8684 7.95696 13.5469 7.95696H13.092C13.5336 7.56798 13.8125 6.99614 13.8125 6.36113C13.8125 5.18753 12.8596 4.23336 11.6875 4.23336H11.5049C11.6211 3.90089 11.6875 3.54183 11.6875 3.16947C11.6875 1.55369 10.4855 0.217181 8.92832 0.00772801V0.00440336ZM6.375 10.6134C5.7873 10.6134 5.3125 10.1379 5.3125 9.54947C5.3125 8.961 5.7873 8.48558 6.375 8.48558C6.9627 8.48558 7.4375 8.961 7.4375 9.54947C7.4375 10.1379 6.9627 10.6134 6.375 10.6134ZM11.6875 9.54947C11.6875 10.1379 11.2127 10.6134 10.625 10.6134C10.0373 10.6134 9.5625 10.1379 9.5625 9.54947C9.5625 8.961 10.0373 8.48558 10.625 8.48558C11.2127 8.48558 11.6875 8.961 11.6875 9.54947ZM11.6875 13.1501C11.6875 13.2298 11.6643 13.3096 11.6145 13.3728C11.3422 13.7219 10.3029 14.8689 8.5 14.8689C6.69707 14.8689 5.65781 13.7186 5.38555 13.3728C5.33574 13.3096 5.3125 13.2298 5.3125 13.1501C5.3125 12.924 5.49512 12.7411 5.7209 12.7411H11.2791C11.5049 12.7411 11.6875 12.924 11.6875 13.1501Z" fill="#CBD0D6"/>
</svg>
