<svg width="20" height="10" viewBox="0 0 20 10" fill="none" xmlns="http://www.w3.org/2000/svg">
<path d="M14.6632 1.525C14.4236 2.03438 13.9479 2.5 13.3333 2.5H6.66667C6.05208 2.5 5.57639 2.03438 5.33681 1.525C4.91667 0.628125 3.92708 0 2.77778 0C1.24306 0 0 1.11875 0 2.5C0 3.45 0.590277 4.27812 1.45833 4.7C1.58333 4.75937 1.66667 4.87187 1.66667 5C1.66667 5.12813 1.58333 5.24063 1.45833 5.3C0.590277 5.72188 0 6.55 0 7.5C0 8.88125 1.24306 10 2.77778 10C3.92708 10 4.91667 9.37188 5.33681 8.475C5.57639 7.96563 6.05208 7.5 6.66667 7.5H13.3333C13.9479 7.5 14.4236 7.96563 14.6632 8.475C15.0833 9.37188 16.0729 10 17.2222 10C18.7569 10 20 8.88125 20 7.5C20 6.55 19.4097 5.72188 18.5417 5.3C18.4167 5.24063 18.3333 5.12813 18.3333 5C18.3333 4.87187 18.4167 4.75937 18.5417 4.7C19.4097 4.27812 20 3.45 20 2.5C20 1.11875 18.7569 0 17.2222 0C16.0729 0 15.0833 0.628125 14.6632 1.525Z" fill="#CBD0D6"/>
</svg>
