<svg width="60" height="16" viewBox="0 0 60 16" fill="none" xmlns="http://www.w3.org/2000/svg">
<path d="M0 0.344333V15.6557H8.30544V12.6714H3.54304V0.344333H0Z" fill="white"/>
<path d="M16.7894 0C13.7295 0 11.8199 1.21664 10.7846 2.24964C9.40419 3.62697 8.4149 5.85366 8.4149 8.05739C8.4149 10.307 9.33517 12.373 10.8076 13.7504C11.9579 14.8522 13.9135 16 16.7894 16C19.3661 16 21.2987 15.1277 22.7251 13.7504C24.3816 12.1435 25.1178 10.0545 25.1178 8.01148C25.1178 5.64706 24.1745 3.62697 22.7251 2.22669C21.1836 0.734577 19.1821 0 16.7894 0ZM16.7664 3.25968C18.1698 3.25968 19.3891 3.83357 20.1483 4.56815C20.8385 5.25682 21.4827 6.42755 21.4827 8.01148C21.4827 9.77905 20.7465 10.858 20.1483 11.4319C19.4121 12.1664 18.3078 12.7403 16.7433 12.7403C15.547 12.7403 14.4427 12.4189 13.4534 11.4778C12.5101 10.5595 12.05 9.43472 12.05 8.03443C12.05 6.33572 12.7402 5.2109 13.4074 4.56815C14.2356 3.74175 15.432 3.25968 16.7664 3.25968Z" fill="white"/>
<path d="M34.4487 10.1463H38.1527C37.8537 11.2712 37.1635 11.868 37.0484 11.9598C36.7033 12.2582 35.8981 12.7862 34.3796 12.7862C33.2063 12.7862 32.171 12.5108 31.2737 11.5925C30.6295 10.9498 29.9853 9.82496 29.9853 8.08034C29.9853 6.6571 30.4455 5.34864 31.2967 4.45337C32.033 3.67288 33.0683 3.21377 34.4717 3.21377C35.3459 3.21377 36.1282 3.44333 36.8184 3.94835C37.4165 4.38451 37.8767 5.0043 38.1758 5.60115L41.3737 3.87948C40.8215 2.91535 39.9243 1.83644 38.889 1.14778C37.4625 0.2066 35.8521 0 34.5867 0C32.7692 0 30.4455 0.275467 28.5589 2.22669C27.2706 3.53515 26.3503 5.53228 26.3503 8.03443C26.3503 11.0875 27.7077 12.9469 28.6049 13.8651C30.3995 15.7016 32.3781 16 34.2186 16C36.0361 16 37.9917 15.6786 39.6942 13.911C41.3967 12.1435 42.0639 9.31994 42.0639 7.46055V7.29986H34.4487V10.1463Z" fill="white"/>
<path d="M51.6716 0C48.6117 0 46.7021 1.21664 45.6668 2.24964C44.2864 3.62697 43.2971 5.85366 43.2971 8.05739C43.2971 10.307 44.2174 12.373 45.6898 13.7504C46.8401 14.8522 48.7957 16 51.6716 16C54.2483 16 56.1809 15.1277 57.6073 13.7504C59.2638 12.1435 60 10.0545 60 8.01148C60 5.64706 59.0567 3.62697 57.6073 2.22669C56.0658 0.734577 54.0643 0 51.6716 0ZM51.6485 3.25968C53.052 3.25968 54.2713 3.83357 55.0305 4.56815C55.7207 5.25682 56.3649 6.42755 56.3649 8.01148C56.3649 9.77905 55.6287 10.858 55.0305 11.4319C54.2943 12.1664 53.19 12.7403 51.6255 12.7403C50.4292 12.7403 49.3249 12.4189 48.3356 11.4778C47.3923 10.5595 46.9322 9.43472 46.9322 8.03443C46.9322 6.33572 47.6224 5.2109 48.2896 4.56815C49.1178 3.74175 50.3142 3.25968 51.6485 3.25968Z" fill="white"/>
</svg>
