<svg width="133" height="133" viewBox="0 0 133 133" fill="none" xmlns="http://www.w3.org/2000/svg">
<circle cx="66.5" cy="66.5" r="66.5" fill="#E1E3E8"/>
<g clip-path="url(#clip0_78_1123)">
<path d="M64.76 33C65.8955 33 67.0346 33 68.1701 33C69.0835 33.1257 70.0039 33.2164 70.9102 33.377C78.3511 34.6998 84.2122 38.4904 88.4722 44.63C91.5932 49.1291 93.0109 54.1798 93.0003 59.6492C92.9721 71.8342 92.9932 84.0227 92.9932 96.2077C92.9932 96.4276 92.9932 96.6475 92.9932 97C92.6829 96.7976 92.496 96.6754 92.3091 96.5497C90.6904 95.4607 89.0647 94.3857 87.4637 93.2723C87.0828 93.007 86.8324 93.0349 86.4762 93.2897C85.4359 94.0297 84.3603 94.7243 83.3165 95.4642C83.0097 95.6806 82.7981 95.6841 82.4913 95.4677C81.4157 94.7033 80.3084 93.9808 79.2292 93.2199C78.9436 93.0175 78.7496 93.0035 78.4569 93.2094C77.3919 93.9529 76.2917 94.651 75.2302 95.3979C74.8705 95.6492 74.6166 95.6876 74.2357 95.4119C73.1813 94.6545 72.081 93.9564 71.0195 93.2094C70.7303 93.0035 70.5364 93.007 70.2437 93.2094C69.161 93.9634 68.0467 94.6754 66.964 95.4328C66.6396 95.6597 66.4104 95.6771 66.0789 95.4433C64.9998 94.6824 63.8854 93.9703 62.8027 93.2164C62.5136 93.014 62.3196 93.0105 62.0304 93.2164C60.9548 93.9808 59.8475 94.7033 58.7684 95.4677C58.4651 95.6806 58.2535 95.6946 57.9432 95.4747C56.9029 94.7312 55.8273 94.0367 54.787 93.2932C54.4308 93.0384 54.1769 93.0035 53.7995 93.2757C52.7416 94.0297 51.6413 94.7243 50.5763 95.4677C50.266 95.6841 50.0509 95.6771 49.7476 95.4607C48.6685 94.6998 47.5576 93.9843 46.4785 93.2234C46.1646 93.0035 45.953 93.0209 45.6462 93.2269C43.9817 94.3578 42.2996 95.4642 40.621 96.5777C40.4446 96.6963 40.2542 96.801 40.0038 96.9546C40.0038 96.7068 40.0038 96.5812 40.0038 96.459C40.0038 84.0227 39.9968 71.5864 40.0179 59.1501C40.0179 57.8447 40.1202 56.5218 40.3247 55.2339C41.1746 49.8342 43.5268 45.1396 47.3354 41.1885C51.2181 37.1466 55.926 34.5567 61.4662 33.4921C62.5559 33.2827 63.6632 33.1606 64.76 33ZM56.6807 65.7923C60.5211 65.8028 63.6279 62.7417 63.6315 58.9476C63.6385 55.1536 60.5493 52.075 56.7124 52.0541C52.9144 52.0332 49.7546 55.1431 49.7405 58.9127C49.7299 62.6894 52.8474 65.7818 56.6772 65.7923H56.6807ZM83.2318 58.9372C83.2318 55.1431 80.1356 52.0611 76.3058 52.0541C72.5042 52.0471 69.355 55.1536 69.3444 58.9232C69.3374 62.6963 72.4619 65.7888 76.2881 65.7923C80.1285 65.7958 83.2248 62.7382 83.2283 58.9372H83.2318Z" fill="#959CA6"/>
<path d="M56.7016 62.0157C54.9806 62.0157 53.5665 60.6265 53.563 58.9337C53.563 57.2408 54.9701 55.8481 56.6945 55.8481C58.419 55.8481 59.8296 57.2303 59.8296 58.9267C59.8296 60.623 58.4225 62.0157 56.7016 62.0157V62.0157Z" fill="#959CA6"/>
<path d="M76.2773 55.8482C78.0158 55.8377 79.4159 57.2095 79.4194 58.9232C79.4194 60.6126 78.0546 61.9913 76.3513 62.0157C74.6057 62.0367 73.2021 60.6929 73.181 58.9686C73.1563 57.2479 74.5352 55.8587 76.2773 55.8482Z" fill="#959CA6"/>
</g>
<defs>
<clipPath id="clip0_78_1123">
<rect width="53" height="64" fill="white" transform="translate(40 33)"/>
</clipPath>
</defs>
</svg>
