<svg width="68" height="67" viewBox="0 0 68 67" fill="none" xmlns="http://www.w3.org/2000/svg">
<circle opacity="0.15" cx="33.8462" cy="33.5" r="33.5" fill="#FF0431"/>
<path fill-rule="evenodd" clip-rule="evenodd" d="M34.0939 15.4618C29.4719 15.4618 25.725 19.2087 25.725 23.8307C25.725 28.4528 29.4719 32.1997 34.0939 32.1997C38.716 32.1997 42.4629 28.4528 42.4629 23.8307C42.4629 19.2087 38.716 15.4618 34.0939 15.4618ZM34.0939 10.308C26.6255 10.308 20.5711 16.3623 20.5711 23.8307C20.5711 31.2992 26.6255 37.3535 34.0939 37.3535C41.5623 37.3535 47.6167 31.2992 47.6167 23.8307C47.6167 16.3623 41.5623 10.308 34.0939 10.308Z" fill="#FF367E"/>
<path fill-rule="evenodd" clip-rule="evenodd" d="M31.2692 56.23L31.2692 35.6146L36.4231 35.6146L36.4231 56.23L31.2692 56.23Z" fill="#FF367E"/>
<path fill-rule="evenodd" clip-rule="evenodd" d="M44.1538 48.4991L23.5384 48.4991L23.5384 43.3452L44.1538 43.3452L44.1538 48.4991Z" fill="#FF367E"/>
</svg>
