<svg width="60" height="60" viewBox="0 0 60 60" fill="none" xmlns="http://www.w3.org/2000/svg">
<circle cx="30" cy="30" r="28.5" fill="white" stroke="#5F6874" stroke-width="3"/>
<path d="M30.6665 33.5833C31.633 33.5833 32.4165 32.7998 32.4165 31.8333C32.4165 30.8668 31.633 30.0833 30.6665 30.0833C29.7 30.0833 28.9165 30.8668 28.9165 31.8333C28.9165 32.7998 29.7 33.5833 30.6665 33.5833Z" fill="#231F20"/>
<path d="M38.8333 23.6667H35.3333V21.9167C35.3333 21.1431 35.026 20.4013 34.4791 19.8543C33.9321 19.3073 33.1902 19 32.4167 19H28.9167C28.1431 19 27.4013 19.3073 26.8543 19.8543C26.3073 20.4013 26 21.1431 26 21.9167V23.6667H22.5C21.5717 23.6667 20.6815 24.0354 20.0251 24.6918C19.3687 25.3482 19 26.2384 19 27.1667V36.5C19 37.4283 19.3687 38.3185 20.0251 38.9749C20.6815 39.6313 21.5717 40 22.5 40H38.8333C39.7616 40 40.6518 39.6313 41.3082 38.9749C41.9646 38.3185 42.3333 37.4283 42.3333 36.5V27.1667C42.3333 26.2384 41.9646 25.3482 41.3082 24.6918C40.6518 24.0354 39.7616 23.6667 38.8333 23.6667ZM28.3333 21.9167C28.3333 21.762 28.3948 21.6136 28.5042 21.5042C28.6136 21.3948 28.762 21.3333 28.9167 21.3333H32.4167C32.5714 21.3333 32.7197 21.3948 32.8291 21.5042C32.9385 21.6136 33 21.762 33 21.9167V23.6667H28.3333V21.9167ZM30.6667 35.9167C29.8591 35.9167 29.0696 35.6772 28.3981 35.2285C27.7266 34.7798 27.2032 34.1421 26.8942 33.396C26.5851 32.6498 26.5042 31.8288 26.6618 31.0367C26.8193 30.2446 27.2082 29.517 27.7793 28.946C28.3504 28.3749 29.078 27.986 29.87 27.8285C30.6621 27.6709 31.4832 27.7518 32.2293 28.0608C32.9754 28.3699 33.6132 28.8933 34.0618 29.5648C34.5105 30.2363 34.75 31.0257 34.75 31.8333C34.75 32.9163 34.3198 33.9549 33.554 34.7207C32.7882 35.4865 31.7496 35.9167 30.6667 35.9167V35.9167Z" fill="#231F20"/>
</svg>
