<svg width="120" height="120" viewBox="0 0 120 120" fill="none" xmlns="http://www.w3.org/2000/svg">
<path d="M0.15 0.15H119.85V119.85H0.15V0.15Z" fill="#EEEEEE" stroke="white" stroke-width="0.3"/>
<g clip-path="url(#clip0_406_108)">
<path d="M67.8125 59.5625C67.8125 61.6345 66.9894 63.6216 65.5243 65.0868C64.0591 66.5519 62.072 67.375 60 67.375C57.928 67.375 55.9409 66.5519 54.4757 65.0868C53.0106 63.6216 52.1875 61.6345 52.1875 59.5625C52.1875 57.4905 53.0106 55.5034 54.4757 54.0382C55.9409 52.5731 57.928 51.75 60 51.75C62.072 51.75 64.0591 52.5731 65.5243 54.0382C66.9894 55.5034 67.8125 57.4905 67.8125 59.5625V59.5625Z" fill="black"/>
<path d="M41.25 45.5C39.5924 45.5 38.0027 46.1585 36.8306 47.3306C35.6585 48.5027 35 50.0924 35 51.75V70.5C35 72.1576 35.6585 73.7473 36.8306 74.9194C38.0027 76.0915 39.5924 76.75 41.25 76.75H78.75C80.4076 76.75 81.9973 76.0915 83.1694 74.9194C84.3415 73.7473 85 72.1576 85 70.5V51.75C85 50.0924 84.3415 48.5027 83.1694 47.3306C81.9973 46.1585 80.4076 45.5 78.75 45.5H75.0875C73.43 45.4996 71.8406 44.8409 70.6687 43.6688L68.0813 41.0812C66.9094 39.9091 65.32 39.2504 63.6625 39.25H56.3375C54.68 39.2504 53.0906 39.9091 51.9188 41.0812L49.3312 43.6688C48.1594 44.8409 46.57 45.4996 44.9125 45.5H41.25ZM42.8125 51.75C42.3981 51.75 42.0007 51.5854 41.7076 51.2924C41.4146 50.9993 41.25 50.6019 41.25 50.1875C41.25 49.7731 41.4146 49.3757 41.7076 49.0826C42.0007 48.7896 42.3981 48.625 42.8125 48.625C43.2269 48.625 43.6243 48.7896 43.9174 49.0826C44.2104 49.3757 44.375 49.7731 44.375 50.1875C44.375 50.6019 44.2104 50.9993 43.9174 51.2924C43.6243 51.5854 43.2269 51.75 42.8125 51.75ZM70.9375 59.5625C70.9375 62.4633 69.7852 65.2453 67.734 67.2965C65.6828 69.3477 62.9008 70.5 60 70.5C57.0992 70.5 54.3172 69.3477 52.266 67.2965C50.2148 65.2453 49.0625 62.4633 49.0625 59.5625C49.0625 56.6617 50.2148 53.8797 52.266 51.8285C54.3172 49.7773 57.0992 48.625 60 48.625C62.9008 48.625 65.6828 49.7773 67.734 51.8285C69.7852 53.8797 70.9375 56.6617 70.9375 59.5625V59.5625Z" fill="black"/>
</g>
<defs>
<clipPath id="clip0_406_108">
<rect width="50" height="50" fill="white" transform="translate(35 33)"/>
</clipPath>
</defs>
</svg>
