<svg width="812" height="1090" viewBox="0 0 812 1090" fill="none" xmlns="http://www.w3.org/2000/svg">
<mask id="mask0_1_355" style="mask-type:alpha" maskUnits="userSpaceOnUse" x="0" y="0" width="812" height="1090">
<rect width="811.702" height="1090" fill="#D9D9D9"/>
</mask>
<g mask="url(#mask0_1_355)">
<g filter="url(#filter0_f_1_355)">
<circle cx="538.674" cy="538.028" r="307.109" fill="black" fill-opacity="0.1"/>
</g>
<g filter="url(#filter1_f_1_355)">
<ellipse cx="363.567" cy="855.913" rx="207.434" ry="113.146" fill="black" fill-opacity="0.15"/>
</g>
<g filter="url(#filter2_f_1_355)">
<ellipse cx="597.94" cy="915.18" rx="215.515" ry="86.2061" fill="black" fill-opacity="0.15"/>
</g>
<path fill-rule="evenodd" clip-rule="evenodd" d="M562.974 228.933C577.589 216.576 596.201 208.559 616.865 207.093C649.47 204.78 679.321 219.333 697.628 243.241C731.716 233.382 769.117 238.942 798.479 261.64C819.613 277.978 833.203 300.583 838.803 325.197C860.807 340.324 875.984 364.69 878.229 393.076C965.862 443.341 1027.68 534.927 1035.36 643.274C1041.25 726.257 1014.32 803.99 965.594 863.753C966.128 946.205 901.921 1016.03 817.808 1022C786.35 1024.23 756.387 1017.23 730.619 1003.31C711.024 1013.17 688.871 1019.47 665.17 1021.15C641.317 1022.85 618.357 1019.69 597.459 1012.6C582.246 1015.87 565.937 1018.22 548.917 1019.43C461.355 1025.64 388.153 999.396 385.416 960.809C385.339 959.724 385.318 958.64 385.353 957.558C348.57 934.53 321.716 896.64 313.728 851.64C267.025 832.41 232.721 788.051 228.904 734.251C227.108 708.934 232.29 684.733 242.817 663.533C238.393 654.297 235.603 644.11 234.836 633.304C233.78 618.42 236.691 604.155 242.682 591.516C235.483 582.79 230.849 571.879 229.993 559.816C228.89 544.261 234.275 529.717 243.887 518.74C236.651 502.602 234.227 485.526 237.719 468.694C242.034 447.898 254.787 430.352 273.172 417.274C273.054 416.316 272.961 415.349 272.891 414.374C270.859 385.727 290.836 360.505 318.692 354.689C318.618 311.874 352.055 275.677 395.816 272.572C395.951 272.562 396.087 272.553 396.222 272.544C406.481 255.08 424.994 242.775 446.861 241.224C449.713 241.021 452.534 241.008 455.312 241.173C467.8 225.183 487.295 214.221 509.821 212.623C529.966 211.194 548.768 217.519 562.974 228.933Z" fill="white"/>
<path fill-rule="evenodd" clip-rule="evenodd" d="M563.209 247.716L553.896 240.233C542.51 231.085 527.309 225.913 510.847 227.081C492.438 228.387 476.712 237.32 466.736 250.094L462.051 256.094L454.452 255.642C452.301 255.514 450.109 255.524 447.887 255.682C430.945 256.884 416.644 266.395 408.72 279.885L404.835 286.5L397.179 287.007L396.842 287.03C360.615 289.6 333.126 319.529 333.187 354.664L333.207 366.466L321.655 368.878C300.592 373.276 285.852 392.241 287.35 413.349C287.401 414.075 287.471 414.795 287.559 415.507L288.612 424.08L281.574 429.086C265.614 440.438 255.357 455.037 251.912 471.639C249.114 485.12 250.964 499.095 257.113 512.811L260.916 521.294L254.791 528.289C247.595 536.507 243.636 547.289 244.452 558.79C245.086 567.73 248.507 575.8 253.863 582.292L259.726 589.4L255.78 597.725C250.825 608.177 248.42 619.955 249.295 632.279C249.93 641.235 252.238 649.649 255.889 657.271L258.943 663.647L255.799 669.979C246.391 688.928 241.754 710.555 243.363 733.225C246.775 781.328 277.434 821.021 319.247 838.237L326.608 841.268L328 849.106C335.246 889.929 359.61 924.341 393.045 945.272L400.11 949.696L399.84 958.027C399.821 958.613 399.832 959.198 399.874 959.783C400.222 964.683 402.825 970.311 409.525 976.369C416.3 982.494 426.586 988.375 440.249 993.274C467.534 1003.06 505.634 1007.97 547.891 1004.97C564.248 1003.81 579.88 1001.56 594.406 998.427L598.323 997.583L602.117 998.871C621.194 1005.34 642.222 1008.25 664.144 1006.7C685.927 1005.15 706.214 999.368 724.103 990.365L730.856 986.966L737.508 990.559C760.919 1003.2 788.144 1009.58 816.782 1007.54C893.328 1002.11 951.584 938.6 951.099 863.847L951.066 858.634L954.36 854.594C1000.84 797.578 1026.52 723.457 1020.91 644.299C1013.57 540.971 954.64 453.615 871.017 405.649L864.383 401.843L863.779 394.219C861.897 370.416 849.186 349.924 830.592 337.142L825.926 333.934L824.67 328.413C819.774 306.893 807.942 287.276 789.614 273.107C764.193 253.456 731.653 248.489 701.655 257.165L692.141 259.916L686.12 252.053C670.688 231.9 645.492 219.593 617.89 221.551C600.38 222.794 584.667 229.573 572.333 240.002L563.209 247.716ZM697.628 243.241C679.321 219.333 649.47 204.78 616.865 207.093C596.201 208.559 577.589 216.576 562.974 228.933C548.768 217.519 529.966 211.194 509.821 212.623C487.295 214.221 467.8 225.183 455.312 241.173C452.534 241.008 449.713 241.021 446.861 241.224C424.994 242.775 406.481 255.08 396.222 272.544C396.087 272.553 395.951 272.562 395.816 272.572C352.055 275.677 318.618 311.874 318.692 354.689C290.836 360.505 270.859 385.727 272.891 414.374C272.961 415.349 273.054 416.316 273.172 417.274C254.787 430.352 242.034 447.898 237.719 468.694C234.227 485.526 236.651 502.602 243.887 518.74C234.275 529.717 228.89 544.261 229.993 559.816C230.849 571.879 235.483 582.79 242.682 591.516C236.691 604.155 233.78 618.42 234.836 633.304C235.603 644.11 238.393 654.297 242.817 663.533C232.29 684.733 227.108 708.934 228.904 734.251C232.721 788.051 267.025 832.41 313.728 851.64C321.716 896.64 348.57 934.53 385.353 957.558C385.318 958.64 385.339 959.724 385.416 960.809C388.153 999.396 461.355 1025.64 548.917 1019.43C565.937 1018.22 582.246 1015.87 597.459 1012.6C618.357 1019.69 641.317 1022.85 665.17 1021.15C688.871 1019.47 711.024 1013.17 730.619 1003.31C756.387 1017.23 786.35 1024.23 817.808 1022C901.921 1016.03 966.128 946.205 965.594 863.753C1014.32 803.99 1041.25 726.257 1035.36 643.274C1027.68 534.927 965.862 443.341 878.229 393.076C875.984 364.69 860.807 340.324 838.803 325.197C833.203 300.583 819.613 277.978 798.479 261.64C769.117 238.942 731.716 233.382 697.628 243.241Z" fill="#D3DBEE"/>
<path d="M514.235 492.548C514.762 499.969 509.173 506.411 501.753 506.938C494.332 507.464 487.89 501.875 487.363 494.455C486.837 487.034 492.426 480.592 499.846 480.066C507.267 479.539 513.709 485.128 514.235 492.548Z" fill="#272727"/>
<path d="M615.568 512.366C616.094 519.786 610.506 526.229 603.085 526.755C595.665 527.282 589.223 521.693 588.696 514.272C588.17 506.852 593.758 500.41 601.179 499.883C608.599 499.357 615.041 504.945 615.568 512.366Z" fill="#272727"/>
<path fill-rule="evenodd" clip-rule="evenodd" d="M369.815 668.854C376.239 659.525 380.6 648.569 382.149 636.562C387.353 596.236 358.881 559.327 318.555 554.123C278.23 548.919 241.32 577.391 236.116 617.717C235.199 624.824 235.328 631.825 236.383 638.565C229.959 647.894 225.599 658.85 224.049 670.857C222.928 679.549 223.37 688.082 225.159 696.173C212.84 707.492 204.291 723.049 201.982 740.939C201.158 747.325 201.178 753.625 201.957 759.727C181.305 774.074 165.724 799.89 161.733 830.815C155.286 880.768 181.476 925.503 220.523 932.122C231.183 944.986 245.305 953.6 261.524 955.693C263.091 955.895 264.654 956.033 266.212 956.109C275.45 964.077 286.449 969.328 298.631 970.9C305.747 971.818 312.791 971.42 319.602 969.862C325.795 973.098 332.507 975.271 339.623 976.19C342.659 976.581 345.681 976.734 348.679 976.658C351.559 977.492 354.521 978.112 357.557 978.504C397.883 983.708 435.902 946.633 442.476 895.696C449.049 844.758 421.687 799.246 381.361 794.042C378.326 793.65 375.303 793.498 372.306 793.573C369.426 792.739 366.463 792.119 363.428 791.727C356.312 790.809 349.268 791.207 342.456 792.765C340.654 791.824 338.809 790.972 336.922 790.215C342.667 781.302 346.567 771.002 348.015 759.785C349.137 751.093 348.694 742.56 346.905 734.469C359.224 723.15 367.773 707.593 370.082 689.702C370.999 682.595 370.87 675.594 369.815 668.854Z" fill="white"/>
<path fill-rule="evenodd" clip-rule="evenodd" d="M276.592 568.893C264.703 573.679 254.957 582.868 251.722 588.169C251.614 588.345 251.515 588.497 251.42 588.636C251.113 589.086 247.298 594.777 244.414 603.263C241.522 611.773 239.743 622.562 242.796 633.573C243.467 635.994 243.258 638.655 242.054 641.012C239.084 646.833 235.556 655.609 233.823 664.369C232.022 673.468 232.504 680.791 235.35 685.214C238.144 689.556 237.881 696.656 232.141 700.171C224.058 705.12 217.549 710.715 213.008 718.697C208.457 726.695 205.499 737.77 205.758 754.29C205.803 757.096 204.71 759.37 203.64 760.897C202.555 762.446 201.198 763.666 199.891 764.544C197.755 765.979 193.348 770.856 188.217 779.195C183.281 787.217 178.18 797.615 174.329 809.141C166.535 832.469 164.348 858.835 176.684 879.759L176.773 879.91L176.855 880.066C185.379 896.272 213.772 933.832 257.284 951.389C277.071 959.374 303.664 965.889 330.132 969.459C356.687 973.041 382.374 973.557 400.493 970.009C404.421 969.239 408.229 971.8 408.998 975.728C409.767 979.656 407.207 983.464 403.279 984.233C382.918 988.221 355.433 987.498 328.195 983.824C300.869 980.137 273.044 973.379 251.86 964.831C204.399 945.68 173.802 905.299 164.108 886.968C148.755 860.782 152.251 829.483 160.581 804.548C164.801 791.917 170.385 780.516 175.873 771.598C180.965 763.324 186.485 756.343 191.249 752.902C191.173 735.352 194.431 722.037 200.41 711.529C205.87 701.931 213.301 695.207 221.387 689.839C217.279 681.048 217.838 670.478 219.604 661.555C221.514 651.901 225.167 642.528 228.418 635.878C224.911 621.687 227.366 608.381 230.69 598.599C234.076 588.637 238.533 581.815 239.399 580.537C244.443 572.331 256.728 561.265 271.179 555.447C285.603 549.64 303.648 548.609 318.846 562.464C326.408 561.645 336.474 562.494 345.663 567.59C355.589 573.095 363.698 583.13 366.65 599.196C374.45 602.467 383.97 608.271 390.75 616.881C397.966 626.043 401.926 638.284 397.584 652.893C405.121 657.492 413.415 665.074 416.522 675.67C420.224 688.295 415.863 702.437 400.805 716.894C398.818 724.288 394.629 734.348 387.73 743.549C380.955 752.586 371.283 761.145 358.201 765.131C358.294 781.607 350.616 807.596 320.107 820.445C320.879 827.313 320.783 835.985 318.225 843.917C315.113 853.565 308.072 862.616 294.759 864.807C290.809 865.457 287.081 862.782 286.431 858.833C285.781 854.884 288.455 851.155 292.405 850.505C299.021 849.416 302.523 845.38 304.43 839.467C306.458 833.179 306.327 825.429 305.348 819.487C304.548 814.635 307.285 809.832 311.942 808.094C339.567 797.783 344.511 775.015 343.617 762.881C343.243 757.806 346.597 753.091 351.654 751.893C362.152 749.408 370.197 742.771 376.133 734.854C382.102 726.893 385.607 718.055 387.043 712.215C387.532 710.226 388.6 708.473 390.021 707.145C403.4 694.633 404.312 685.542 402.613 679.748C400.67 673.123 394.434 667.481 387.83 664.017C383.166 661.571 381.061 656.019 382.903 651.103C386.936 640.336 384.367 632.202 379.363 625.849C374.06 619.115 365.875 614.328 359.312 611.876C355.746 610.544 353.242 607.368 352.701 603.679C350.739 590.311 344.767 583.668 338.633 580.266C332.125 576.656 324.501 576.203 319.06 577.051C315.764 577.565 312.444 576.458 310.115 574.157C300.062 564.23 288.093 564.262 276.592 568.893ZM191.848 752.481C191.847 752.481 191.845 752.484 191.839 752.489C191.845 752.483 191.848 752.481 191.848 752.481Z" fill="#D2D8E6"/>
<g filter="url(#filter3_f_1_355)">
<path d="M708.204 604.959C705.389 615.316 687.394 619.442 668.012 614.174C648.63 608.905 635.199 596.238 638.015 585.88C640.83 575.523 658.825 571.397 678.207 576.666C697.589 581.934 711.02 594.601 708.204 604.959Z" fill="#FF7E7E" fill-opacity="0.63"/>
</g>
<path fill-rule="evenodd" clip-rule="evenodd" d="M548.817 545.124C515.522 534.893 486.783 549.597 477.002 557.853C473.943 560.434 469.37 560.047 466.789 556.989C464.207 553.93 464.594 549.357 467.653 546.776C480.036 536.325 513.773 519.192 553.075 531.269C592.193 543.29 606.806 572.161 609.073 586.563C609.695 590.517 606.994 594.227 603.04 594.849C599.086 595.472 595.377 592.771 594.754 588.817C593.291 579.519 582.294 555.412 548.817 545.124Z" fill="#D2D8E6" fill-opacity="0.5"/>
<g filter="url(#filter4_f_1_355)">
<path d="M452.179 536.664C449.37 547 431.38 551.108 411.997 545.84C392.615 540.572 379.18 527.921 381.989 517.585C384.799 507.249 402.789 503.14 422.171 508.409C441.554 513.677 454.989 526.327 452.179 536.664Z" fill="#FF7E7E" fill-opacity="0.63"/>
</g>
<path fill-rule="evenodd" clip-rule="evenodd" d="M373.373 551.643C364.219 547.059 353.323 545.367 346.044 545.297C342.042 545.258 338.828 541.982 338.867 537.98C338.905 533.977 342.181 530.764 346.184 530.803C355.041 530.888 368.244 532.863 379.864 538.683C390.956 544.239 401.33 553.747 403.964 568.889C409.972 570.477 417.067 573.673 422.719 579.315C429.018 585.603 433.114 594.549 432.277 606.256C439.151 609.272 447.186 614.424 452.052 622.15C454.944 626.741 456.712 632.255 456.326 638.533C455.943 644.753 453.482 651.151 448.892 657.655C446.584 660.925 442.062 661.705 438.792 659.397C435.522 657.089 434.742 652.567 437.049 649.297C440.477 644.441 441.678 640.578 441.858 637.642C442.035 634.764 441.269 632.227 439.788 629.875C436.625 624.854 430.275 620.879 424.275 618.646C419.646 616.923 416.904 612.2 417.587 607.389C418.825 598.658 416.124 593.212 412.479 589.574C408.539 585.641 402.986 583.371 398.385 582.471C393.861 581.586 390.425 577.839 389.944 573.246C388.865 562.949 382.376 556.153 373.373 551.643Z" fill="#D2D8E6"/>
<path d="M526.07 552.909L529.596 558.907C532.94 564.597 540.352 566.353 545.893 562.767L552.089 558.757C560.806 553.116 558.285 539.741 548.112 537.661L538.391 535.673C528.554 533.661 520.983 544.253 526.07 552.909Z" fill="black"/>
<path fill-rule="evenodd" clip-rule="evenodd" d="M540.839 548.61C544.705 549.645 547.001 553.618 545.966 557.485L537.481 589.184C536.34 593.447 533.629 597.638 529.176 600.106C516.229 607.284 495.564 611.939 473.566 595.449C470.364 593.048 469.714 588.506 472.114 585.303C474.515 582.101 479.058 581.451 482.26 583.851C498.514 596.036 512.774 592.626 522.148 587.429C522.591 587.184 523.173 586.581 523.48 585.437L531.964 553.737C532.999 549.871 536.972 547.575 540.839 548.61Z" fill="black"/>
<path fill-rule="evenodd" clip-rule="evenodd" d="M528.092 581.785C531.866 580.453 536.006 582.433 537.338 586.208C540.794 595.999 547.218 600.699 554.956 603.059C563.143 605.556 572.698 605.368 581.611 604.735C585.603 604.452 589.069 607.459 589.353 611.452C589.636 615.444 586.629 618.91 582.636 619.194C573.611 619.834 561.695 620.268 550.727 616.923C539.309 613.44 528.893 605.831 523.67 591.032C522.338 587.257 524.318 583.118 528.092 581.785Z" fill="black"/>
<path fill-rule="evenodd" clip-rule="evenodd" d="M579.075 1005.83C568.57 1015.3 554.879 1021.48 539.592 1022.57C536.845 1022.76 534.127 1022.79 531.446 1022.65C523.426 1027 514.352 1029.75 504.633 1030.44C497.008 1030.98 489.597 1030.21 482.626 1028.32C475.993 1031.17 468.764 1032.98 461.139 1033.52C425.107 1036.08 393.854 1009.34 391.333 973.809C388.811 938.275 415.977 907.396 452.009 904.84C459.634 904.299 467.046 905.069 474.016 906.958C480.65 904.104 487.878 902.295 495.503 901.754C498.25 901.559 500.969 901.534 503.649 901.67C511.669 897.324 520.743 894.574 530.462 893.885C548.676 892.592 565.669 898.785 578.347 909.815C588.853 900.342 602.544 894.159 617.831 893.074C633.688 891.949 648.619 896.497 660.584 904.971C670.25 901.601 680.829 899.382 691.988 898.59C706.864 897.535 721.078 899.136 733.755 902.857C745.606 894.085 760.623 888.332 777.237 887.153C818.523 884.224 854.037 910.656 856.558 946.19C859.079 981.725 827.653 1012.91 786.367 1015.83C774.405 1016.68 762.928 1015.07 752.597 1011.48C738.407 1020.13 720.65 1025.89 701.118 1027.27C680.494 1028.74 661.142 1025.09 645.394 1017.78C639.616 1019.92 633.431 1021.3 626.961 1021.76C608.746 1023.05 591.753 1016.86 579.075 1005.83Z" fill="white"/>
<path fill-rule="evenodd" clip-rule="evenodd" d="M351.445 762.46C355.447 762.46 358.692 765.704 358.692 769.707C358.692 778.923 364.901 786.887 374.639 793.027C384.336 799.141 395.746 802.233 402.304 802.376C406.481 802.467 410.254 805.006 411.872 808.915C414.299 814.773 419.659 820.96 427.654 826.628C435.571 832.241 445.623 837.019 456.673 840.25C478.969 846.768 503.918 846.618 522.62 836.154C526.588 833.934 531.622 834.549 534.921 837.833C560.665 863.458 605.534 874.017 644.357 855.049C646.22 854.139 648.324 853.794 650.436 854.116C654.086 854.671 670.083 856.654 688.492 852.462C706.747 848.305 727.031 838.185 740.432 814.711C742.7 810.738 747.104 808.966 751.13 809.544C754.619 810.046 760.254 809.663 767.421 808.123C774.437 806.616 782.38 804.117 790.255 800.833C806.377 794.109 820.68 784.738 826.938 775.19C829.133 771.843 833.625 770.908 836.973 773.102C840.32 775.297 841.255 779.789 839.061 783.137C830.356 796.416 812.685 807.183 795.835 814.211C787.224 817.802 778.433 820.583 770.466 822.294C763.751 823.737 757.199 824.515 751.689 824.16C735.754 850.462 712.19 861.931 691.71 866.595C672.441 870.983 655.617 869.439 649.56 868.631C606.265 889.164 556.842 878.176 526.941 850.269C504.194 861.747 476.231 861.069 452.606 854.162C440.214 850.539 428.662 845.111 419.271 838.453C410.73 832.398 403.588 825.044 399.509 816.735C390.167 815.96 377.572 812.012 366.908 805.288C355.31 797.975 344.197 786.156 344.197 769.707C344.197 765.704 347.442 762.46 351.445 762.46ZM539.107 868.308C553.432 871.626 568.138 880.574 573.809 896.972C575.117 900.754 573.111 904.881 569.329 906.19C565.546 907.498 561.419 905.492 560.111 901.709C556.611 891.589 547.169 885.054 535.836 882.429C524.234 879.741 513.139 881.73 507.86 885.769C505.499 887.576 502.258 888.483 498.953 887.667C492.591 886.096 483.77 885.169 476.138 886.701C468.689 888.196 463.443 891.706 461.298 898.336C459.629 903.49 454.256 906.7 448.842 905.541C444.727 904.659 439.128 904.612 433.766 906.828C428.611 908.958 423.113 913.4 419.181 922.565C417.872 925.614 415.209 927.804 412.086 928.576C407.474 929.717 402.145 932.55 399.108 937.205C396.355 941.425 394.592 948.52 399.567 960.453C400.559 962.833 400.633 965.519 399.756 967.96C397.537 974.131 396.511 983.462 400.107 992.143C403.542 1000.44 411.704 1009.37 430.316 1014.3L430.739 1014.41L431.145 1014.57C444.106 1019.74 466.911 1025.6 492.645 1026.07C518.361 1026.55 546.417 1021.65 570.486 1005.95C574.18 1003.54 578.825 1003.83 582.181 1006.23C591.085 1012.58 615.851 1023.05 650.705 1015.96C651.971 1015.71 653.326 1015.68 654.707 1015.95C665.003 1017.98 681.931 1020.07 699.617 1019.81C717.49 1019.55 735.138 1016.88 747.576 1010.15C750.017 1008.83 752.894 1008.54 755.578 1009.38C763.78 1011.98 776.484 1013.91 788.676 1011.65C800.618 1009.44 811.715 1003.33 818.325 989.968C820.1 986.38 824.447 984.911 828.034 986.686C831.622 988.46 833.092 992.807 831.317 996.395C822.232 1014.76 806.648 1023.06 791.316 1025.9C777.076 1028.54 762.763 1026.57 752.907 1023.72C737.576 1031.49 717.84 1034.04 699.832 1034.3C681.493 1034.58 663.979 1032.48 652.758 1030.34C616.586 1037.46 589.202 1027.88 576.075 1019.58C549.39 1036.15 519.174 1041.06 492.377 1040.57C465.07 1040.06 440.74 1033.93 426.182 1028.2C404.291 1022.3 392.148 1010.81 386.715 997.69C381.711 985.606 382.847 973.203 385.601 964.575C379.89 949.943 381.216 938.103 386.969 929.284C392.114 921.399 400.087 917.047 406.674 915.039C412.02 903.673 419.837 896.901 428.23 893.432C435.473 890.439 442.757 890.058 448.663 890.819C453.554 879.641 463.552 874.443 473.286 872.49C482.874 870.566 493.058 871.524 500.582 873.166C510.58 866.511 525.754 865.214 539.107 868.308Z" fill="#D2D8E6"/>
<path d="M378.311 807.354L382.66 859.534L389.818 935.412C389.85 935.751 390.28 935.876 390.489 935.608L394.684 930.214C398.122 925.794 403.175 922.921 408.731 922.226L411.162 921.922C411.463 921.885 411.721 921.689 411.838 921.409L413.162 918.231C416.792 909.519 424.138 902.895 433.178 900.184C433.32 900.141 433.465 900.109 433.612 900.089L445.997 898.392C449.054 897.974 451.804 896.317 453.603 893.811L453.966 893.306C457.598 888.248 462.305 884.056 467.748 881.032C470.882 879.291 474.408 878.377 477.993 878.377L499.248 878.377C500.464 878.377 501.416 877.33 501.301 876.12L495.718 817.5C492.819 791.409 476.898 791.034 465.279 788.511C453.699 785.995 427.762 782.734 398.886 779.842C398.699 779.823 398.505 779.823 398.318 779.842C383.288 781.395 378.311 791.839 378.311 807.354Z" fill="url(#paint0_linear_1_355)"/>
<path fill-rule="evenodd" clip-rule="evenodd" d="M467.946 796.449C466.628 796.19 465.232 795.917 463.741 795.593C452.691 793.193 427.378 789.986 398.626 787.1C393.16 787.753 390.407 789.802 388.732 792.347C386.776 795.319 385.591 800.04 385.559 807.06L389.879 858.893L395.605 919.588C398.888 917.397 402.618 915.898 406.565 915.222C411.062 904.615 420.051 896.555 431.095 893.242C431.597 893.091 432.109 892.98 432.628 892.909L445.013 891.212C446.099 891.063 447.077 890.475 447.716 889.584L448.079 889.079C448.079 889.079 448.079 889.079 448.079 889.079C452.335 883.152 457.85 878.241 464.228 874.697C468.439 872.358 473.176 871.13 477.993 871.13L493.546 871.13L488.509 818.245C487.233 806.857 483.385 802.503 479.89 800.29C476.462 798.119 472.723 797.385 467.946 796.449ZM494.086 876.807C494.086 876.804 494.086 876.802 494.086 876.8ZM487.646 788.045C495.737 793.169 501.292 802.038 502.921 816.7L502.927 816.756L508.516 875.432C509.036 880.898 504.738 885.625 499.248 885.625L477.993 885.625C475.64 885.625 473.325 886.225 471.267 887.368C466.759 889.872 462.861 893.344 459.853 897.533L459.49 898.039C456.531 902.16 452.008 904.884 446.981 905.573L434.947 907.221C428.132 909.366 422.604 914.413 419.851 921.019L418.528 924.196C417.411 926.877 414.943 928.754 412.061 929.114L409.63 929.418C405.981 929.874 402.662 931.761 400.405 934.664L396.21 940.057C391.971 945.507 383.251 942.966 382.603 936.093L389.818 935.412L389.882 935.406M389.818 935.412L382.603 936.093L375.441 860.176L371.064 807.655L371.064 807.354C371.064 799.022 372.362 790.853 376.625 784.377C381.152 777.5 388.301 773.591 397.573 772.633C398.268 772.561 398.954 772.565 399.608 772.631C428.418 775.516 454.766 778.811 466.817 781.428C467.62 781.603 468.543 781.777 469.558 781.968C474.514 782.903 481.657 784.251 487.646 788.045" fill="#D2D8E5"/>
<path d="M415.71 813.067C416.432 818.624 413.156 823.63 408.392 824.249C403.629 824.868 399.183 820.864 398.461 815.307C397.74 809.75 401.016 804.744 405.779 804.125C410.542 803.507 414.988 807.51 415.71 813.067Z" fill="#010101" fill-opacity="0.22"/>
</g>
<defs>
<filter id="filter0_f_1_355" x="201.564" y="200.919" width="674.219" height="674.219" filterUnits="userSpaceOnUse" color-interpolation-filters="sRGB">
<feFlood flood-opacity="0" result="BackgroundImageFix"/>
<feBlend mode="normal" in="SourceGraphic" in2="BackgroundImageFix" result="shape"/>
<feGaussianBlur stdDeviation="15" result="effect1_foregroundBlur_1_355"/>
</filter>
<filter id="filter1_f_1_355" x="136.134" y="722.768" width="454.867" height="266.291" filterUnits="userSpaceOnUse" color-interpolation-filters="sRGB">
<feFlood flood-opacity="0" result="BackgroundImageFix"/>
<feBlend mode="normal" in="SourceGraphic" in2="BackgroundImageFix" result="shape"/>
<feGaussianBlur stdDeviation="10" result="effect1_foregroundBlur_1_355"/>
</filter>
<filter id="filter2_f_1_355" x="367.425" y="813.974" width="461.031" height="202.412" filterUnits="userSpaceOnUse" color-interpolation-filters="sRGB">
<feFlood flood-opacity="0" result="BackgroundImageFix"/>
<feBlend mode="normal" in="SourceGraphic" in2="BackgroundImageFix" result="shape"/>
<feGaussianBlur stdDeviation="7.5" result="effect1_foregroundBlur_1_355"/>
</filter>
<filter id="filter3_f_1_355" x="617.642" y="554.375" width="110.936" height="82.0902" filterUnits="userSpaceOnUse" color-interpolation-filters="sRGB">
<feFlood flood-opacity="0" result="BackgroundImageFix"/>
<feBlend mode="normal" in="SourceGraphic" in2="BackgroundImageFix" result="shape"/>
<feGaussianBlur stdDeviation="10" result="effect1_foregroundBlur_1_355"/>
</filter>
<filter id="filter4_f_1_355" x="361.618" y="486.113" width="110.932" height="82.0219" filterUnits="userSpaceOnUse" color-interpolation-filters="sRGB">
<feFlood flood-opacity="0" result="BackgroundImageFix"/>
<feBlend mode="normal" in="SourceGraphic" in2="BackgroundImageFix" result="shape"/>
<feGaussianBlur stdDeviation="10" result="effect1_foregroundBlur_1_355"/>
</filter>
<linearGradient id="paint0_linear_1_355" x1="465.76" y1="763.544" x2="417.409" y2="916.845" gradientUnits="userSpaceOnUse">
<stop stop-color="#7E9BFF"/>
<stop offset="1" stop-color="#FF5487"/>
</linearGradient>
</defs>
</svg>
