<svg width="17" height="15" viewBox="0 0 17 15" fill="none" xmlns="http://www.w3.org/2000/svg">
<path d="M0 5.35714C0 4.17522 0.95293 3.21429 2.125 3.21429C2.1416 3.21429 2.16152 3.21429 2.17812 3.21429C2.42383 1.99219 3.49629 1.07143 4.78125 1.07143C5.2793 1.07143 5.74414 1.20871 6.13926 1.44643C6.58086 0.589286 7.47402 0 8.5 0C9.52598 0 10.4191 0.589286 10.8607 1.44643C11.2559 1.20871 11.7207 1.07143 12.2188 1.07143C13.5037 1.07143 14.5762 1.99219 14.8219 3.21429C14.8385 3.21429 14.8584 3.21429 14.875 3.21429C16.0471 3.21429 17 4.17522 17 5.35714C17 5.74888 16.8971 6.11384 16.7145 6.42857H0.285547C0.10293 6.11384 0 5.74888 0 5.35714ZM0 8.41741C0 7.91183 0.408398 7.5 0.909766 7.5H16.0902C16.5916 7.5 17 7.91183 17 8.41741C17 10.7779 15.5258 12.7935 13.4572 13.577L13.3975 14.0625C13.3311 14.5982 12.8795 15 12.3416 15H4.65508C4.12051 15 3.66563 14.5982 3.59922 14.0625L3.53945 13.5804C1.47422 12.7935 0 10.7779 0 8.41741Z" fill="#CBD0D6"/>
</svg>
