<svg width="72" height="20" viewBox="0 0 72 20" fill="none" xmlns="http://www.w3.org/2000/svg">
<path d="M0.970993 0.990998V19H10.718V15.49H5.12899V0.990998H0.970993Z" fill="#3182F7"/>
<path d="M20.6745 0.585999C17.0835 0.585999 14.8425 2.017 13.6275 3.232C12.0075 4.852 10.8465 7.471 10.8465 10.063C10.8465 12.709 11.9265 15.139 13.6545 16.759C15.0045 18.055 17.2995 19.405 20.6745 19.405C23.6985 19.405 25.9665 18.379 27.6405 16.759C29.5845 14.869 30.4485 12.412 30.4485 10.009C30.4485 7.228 29.3415 4.852 27.6405 3.205C25.8315 1.45 23.4825 0.585999 20.6745 0.585999ZM20.6475 4.42C22.2945 4.42 23.7255 5.095 24.6165 5.959C25.4265 6.769 26.1825 8.146 26.1825 10.009C26.1825 12.088 25.3185 13.357 24.6165 14.032C23.7525 14.896 22.4565 15.571 20.6205 15.571C19.2165 15.571 17.9205 15.193 16.7595 14.086C15.6525 13.006 15.1125 11.683 15.1125 10.036C15.1125 8.038 15.9225 6.715 16.7055 5.959C17.6775 4.987 19.0815 4.42 20.6475 4.42Z" fill="#3182F7"/>
<path d="M41.3989 12.52H45.7458C45.3949 13.843 44.5849 14.545 44.4499 14.653C44.0449 15.004 43.0999 15.625 41.3179 15.625C39.9409 15.625 38.7259 15.301 37.6729 14.221C36.9169 13.465 36.1609 12.142 36.1609 10.09C36.1609 8.416 36.7009 6.877 37.6999 5.824C38.5639 4.906 39.7789 4.366 41.4258 4.366C42.4519 4.366 43.3699 4.636 44.1799 5.23C44.8819 5.743 45.4219 6.472 45.7729 7.174L49.5259 5.149C48.8779 4.015 47.8249 2.746 46.6099 1.936C44.9359 0.828999 43.0459 0.585999 41.5609 0.585999C39.4279 0.585999 36.7009 0.91 34.4869 3.205C32.9749 4.744 31.8949 7.093 31.8949 10.036C31.8949 13.627 33.4879 15.814 34.5409 16.894C36.6469 19.054 38.9689 19.405 41.1289 19.405C43.2619 19.405 45.5569 19.027 47.5549 16.948C49.5529 14.869 50.3358 11.548 50.3358 9.361V9.172H41.3989V12.52Z" fill="#3182F7"/>
<path d="M61.6111 0.585999C58.0201 0.585999 55.7791 2.017 54.5641 3.232C52.9441 4.852 51.7831 7.471 51.7831 10.063C51.7831 12.709 52.8631 15.139 54.5911 16.759C55.9411 18.055 58.2361 19.405 61.6111 19.405C64.6351 19.405 66.9031 18.379 68.5771 16.759C70.5211 14.869 71.3851 12.412 71.3851 10.009C71.3851 7.228 70.2781 4.852 68.5771 3.205C66.7681 1.45 64.4191 0.585999 61.6111 0.585999ZM61.5841 4.42C63.2311 4.42 64.6621 5.095 65.5531 5.959C66.3631 6.769 67.1191 8.146 67.1191 10.009C67.1191 12.088 66.2551 13.357 65.5531 14.032C64.6891 14.896 63.3931 15.571 61.5571 15.571C60.1531 15.571 58.8571 15.193 57.6961 14.086C56.5891 13.006 56.0491 11.683 56.0491 10.036C56.0491 8.038 56.8591 6.715 57.6421 5.959C58.6141 4.987 60.0181 4.42 61.5841 4.42Z" fill="#3182F7"/>
</svg>
