<svg width="67" height="67" viewBox="0 0 67 67" fill="none" xmlns="http://www.w3.org/2000/svg">
<circle opacity="0.15" cx="33.5" cy="33.5" r="33.5" fill="#056DFA"/>
<path fill-rule="evenodd" clip-rule="evenodd" d="M24.5955 47.5039C28.5983 49.8149 33.7167 48.4434 36.0277 44.4406C38.3387 40.4378 36.9673 35.3195 32.9645 33.0084C28.9617 30.6974 23.8433 32.0689 21.5323 36.0717C19.2213 40.0745 20.5927 45.1928 24.5955 47.5039ZM22.0186 51.9672C28.4865 55.7014 36.7569 53.4854 40.4911 47.0175C44.2253 40.5497 42.0092 32.2793 35.5414 28.5451C29.0735 24.8109 20.8031 27.0269 17.0689 33.4948C13.3347 39.9626 15.5508 48.233 22.0186 51.9672Z" fill="#056DFA"/>
<path fill-rule="evenodd" clip-rule="evenodd" d="M44.5347 18.1228L37.0971 31.005L32.6338 28.4281L40.0713 15.5459L44.5347 18.1228Z" fill="#056DFA"/>
<path fill-rule="evenodd" clip-rule="evenodd" d="M45.4773 11.3358L49.1141 24.9084C49.4824 26.2831 48.6666 27.6961 47.2919 28.0644C45.9172 28.4328 44.5042 27.617 44.1358 26.2423L41.833 17.6479L33.2386 19.9508C31.8639 20.3191 30.4509 19.5033 30.0826 18.1286C29.7142 16.7539 30.53 15.3409 31.9047 14.9725L45.4773 11.3358Z" fill="#056DFA"/>
</svg>
